<svg width="144" height="138" viewBox="0 0 144 138" fill="none" xmlns="http://www.w3.org/2000/svg">
<path d="M62.5215 0.498782C32.4091 4.37783 7.91089 25.2058 0.874937 52.8834C0.0364557 56.2382 0 56.8323 0 68.9587C0 81.0851 0.0364557 81.6792 0.874937 85.034C6.59848 107.574 24.3524 126.236 47.4289 133.959C71.2709 141.927 97.2638 137.978 117.387 123.3C129.892 114.179 139.407 100.445 143.271 85.9077C143.927 83.3915 144 82.0286 144 68.9587C144 55.8887 143.927 54.5258 143.271 52.0097C135.87 24.2623 110.497 3.46923 80.1296 0.324057C75.4268 -0.165192 67.042 -0.0953056 62.5215 0.498782ZM26.5397 35.6199C28.9458 36.214 29.5291 36.4935 29.3833 36.9478C29.2739 37.2623 26.9043 45.7543 24.0608 55.8538C17.3165 79.9318 16.7332 82.0636 16.5144 82.0636C16.4051 82.0636 15.4937 81.8189 14.4729 81.5743C13.4157 81.2947 11.8846 80.8754 11.0461 80.6657C10.1711 80.456 9.47848 80.1066 9.47848 79.8619C9.44203 79.6173 12.2856 69.3431 15.7489 56.9721C21.6547 35.8295 22.0557 34.5016 22.7848 34.7113C23.1858 34.8161 24.8628 35.2355 26.5397 35.6199ZM120.304 34.7462C120.304 34.9908 132.699 79.198 132.917 79.792C133.027 80.0367 131.787 80.5259 129.381 81.155C127.34 81.6792 125.626 82.0286 125.553 81.9587C125.481 81.8888 122.637 71.8592 119.21 59.6629C115.783 47.4667 112.903 37.2623 112.83 36.9478C112.685 36.4935 113.304 36.2139 116.002 35.515C119.721 34.5365 120.304 34.4317 120.304 34.7462ZM81.9889 38.3806C90.8841 40.093 101.93 41.0365 105.248 40.3376C106.305 40.093 106.451 40.1629 106.669 41.0715C106.815 41.5957 109.185 49.9129 111.955 59.5232L116.95 76.9963L115.966 77.87C115.455 78.3592 114.289 79.3028 113.414 80.0017C111.883 81.2248 111.846 81.2947 112.393 82.0985C113.414 83.5662 113.815 86.1523 113.377 88.2141C112.612 91.6389 109.549 94.7491 106.378 95.2034C105.211 95.4131 104.992 95.5528 104.992 96.2867C104.992 98.1039 102.878 100.865 100.618 101.983C99.8886 102.332 98.5398 102.717 97.5919 102.857C96.316 103.031 95.8785 103.276 95.8785 103.695C95.8785 104.01 95.441 104.953 94.8942 105.757C92.9256 108.658 88.9884 109.671 84.6137 108.413L82.6815 107.854L81.5149 108.902C80.8952 109.461 79.9838 110.125 79.4734 110.37C78.1246 111.069 74.1509 110.894 71.6354 110.091L69.4481 109.357L68.1722 110.16C63.4694 113.061 58.7666 112.362 57.2719 108.553C56.9073 107.609 56.8709 107.609 55.6314 108.099C52.0223 109.566 47.3924 107.26 46.8091 103.73C46.5904 102.472 46.5175 102.402 45.679 102.717C43.2729 103.591 40.5752 102.717 38.8618 100.48C37.7681 99.0824 37.841 96.3916 38.9711 94.2249C40.8304 90.7652 44.476 87.655 46.6998 87.655C48.3038 87.655 50.637 89.0528 51.5848 90.5905C52.0952 91.4292 52.4962 92.3378 52.4962 92.6174C52.4962 93.0367 52.8608 93.1066 54.2461 92.9668C57.3813 92.6872 60.2977 94.7491 60.7716 97.6147C60.9539 98.698 61.0997 98.8378 62.1205 98.8378C63.9068 98.8378 65.5473 100.096 66.5681 102.228C67.443 104.15 74.078 106.841 76.7392 106.386C79.437 105.897 79.1453 105.478 72.4739 100.865C69.0106 98.4534 65.7661 96.1469 65.2557 95.7625L64.3443 95.0636L67.2608 94.819C68.8648 94.7141 70.3595 94.5744 70.5782 94.5394C70.797 94.5045 73.8957 96.4615 77.5048 98.8727C84.4679 103.591 85.5251 104.22 87.4208 104.604C89.8633 105.093 91.9777 103.346 91.1028 101.529C90.9205 101.109 90.0456 100.306 89.2071 99.7115C88.3686 99.1523 83.6658 95.8324 78.7443 92.3727L69.8127 86.0824L73.3489 85.8028L76.8851 85.4883L85.3792 91.534C90.0456 94.819 94.4203 97.7545 95.0765 98.034C97.4461 98.9776 100.253 97.5098 100.253 95.2733C100.253 94.155 99.524 93.526 89.3165 85.8378L82.2076 80.491L79.9109 76.1926C78.6349 73.8162 77.6506 71.7893 77.76 71.7194C77.8329 71.6146 83.0825 75.4587 89.3529 80.1765C103.826 91.1147 103.388 90.8001 104.919 90.8001C106.378 90.8001 108.419 89.0878 108.857 87.5152C109.404 85.3136 108.529 84.0555 103.789 80.2463C101.347 78.2893 95.5868 73.0474 90.957 68.6092C78.0152 56.1334 74.7342 53.757 70.323 53.757C67.443 53.757 65.7661 54.5608 65.2192 56.1683C63.7246 60.6414 59.7144 65.7436 56.6157 67.1065C53.8086 68.3296 49.8714 67.5958 47.7205 65.4291L46.882 64.5554L47.8663 61.8646C48.3767 60.3968 49.3975 56.9022 50.1266 54.1414C51.5848 48.585 52.642 46.2785 54.2096 45.1602C56.2147 43.7274 67.8076 38.5554 70.7241 37.7516C73.0208 37.1226 76.5934 37.2973 81.9889 38.3806ZM57.199 39.1844C57.1261 39.2543 55.0116 40.1978 52.5691 41.2812L48.0486 43.2731H41.3408C37.6587 43.2731 34.6329 43.1333 34.6329 42.9935C34.6329 42.8188 34.8881 41.8753 35.1797 40.8968L35.763 39.0796H46.5539C52.4962 39.0796 57.2719 39.1494 57.199 39.1844ZM32.1904 80.2463C35.5443 82.413 38.2785 84.3351 38.2785 84.4749C38.2785 84.6496 37.6223 86.0824 36.8567 87.6899C36.0547 89.2975 35.2891 91.0797 35.1433 91.6039C34.961 92.4426 34.7787 92.5824 34.0496 92.4077C31.3154 91.7437 29.0916 90.0313 28.4354 88.1442C28.0709 87.0958 28.1073 86.6415 28.6177 85.3485C28.9458 84.4749 29.201 83.741 29.1281 83.6711C29.0552 83.6012 27.9615 82.9023 26.722 82.0985C25.4461 81.2947 24.4253 80.4211 24.4253 80.1765C24.4253 79.3377 25.5554 76.0877 25.8106 76.1926C25.9565 76.2625 28.8365 78.0797 32.1904 80.2463Z" fill="#13997E"/>
</svg>
